<svg width="26" height="16" viewBox="0 0 26 16" fill="none" xmlns="http://www.w3.org/2000/svg">
<path d="M19.0647 10.2526H17.8598L17.4328 10.001C19.2629 8.69618 20.2085 6.91605 19.69 5.02408C18.9732 2.43311 15.4349 0.364064 11.1647 0.0471832C4.7135 -0.437459 -0.715841 2.88047 0.0772089 6.82285C0.595742 9.43246 3.98146 11.5947 8.22123 12.0328C11.3172 12.3496 14.2301 11.7718 16.3652 10.6534L16.777 10.9143V11.6506L23.2587 15.6116C23.884 15.9938 24.9058 15.9938 25.5311 15.6116C26.1564 15.2295 26.1564 14.6051 25.5311 14.223L19.0647 10.2526ZM9.91408 10.2526C6.11659 10.2526 3.05115 8.3793 3.05115 6.05861C3.05115 3.73792 6.11659 1.86459 9.91408 1.86459C13.7116 1.86459 16.777 3.73792 16.777 6.05861C16.777 8.3793 13.7116 10.2526 9.91408 10.2526Z" fill="black"/>
</svg>
