<svg width="26" height="28" viewBox="0 0 26 28" fill="none" xmlns="http://www.w3.org/2000/svg">
<path d="M13 0C5.837 0 0 6.286 0 14C0 21.714 5.837 28 13 28C20.163 28 26 21.714 26 14C26 6.286 20.163 0 13 0ZM17.368 17.22C17.745 17.626 17.745 18.298 17.368 18.704C17.173 18.914 16.926 19.012 16.679 19.012C16.432 19.012 16.185 18.914 15.99 18.704L13 15.484L10.01 18.704C9.815 18.914 9.568 19.012 9.321 19.012C9.074 19.012 8.827 18.914 8.632 18.704C8.255 18.298 8.255 17.626 8.632 17.22L11.622 14L8.632 10.78C8.255 10.374 8.255 9.702 8.632 9.296C9.009 8.89 9.633 8.89 10.01 9.296L13 12.516L15.99 9.296C16.367 8.89 16.991 8.89 17.368 9.296C17.745 9.702 17.745 10.374 17.368 10.78L14.378 14L17.368 17.22Z" fill="#292D32"/>
</svg>
