<svg width="26" height="25" viewBox="0 0 26 25" fill="none" xmlns="http://www.w3.org/2000/svg">
<path d="M13 0C5.837 0 0 5.6125 0 12.5C0 19.3875 5.837 25 13 25C20.163 25 26 19.3875 26 12.5C26 5.6125 20.163 0 13 0ZM19.214 9.625L11.843 16.7125C11.661 16.8875 11.414 16.9875 11.154 16.9875C10.894 16.9875 10.647 16.8875 10.465 16.7125L6.786 13.175C6.409 12.8125 6.409 12.2125 6.786 11.85C7.163 11.4875 7.787 11.4875 8.164 11.85L11.154 14.725L17.836 8.3C18.213 7.9375 18.837 7.9375 19.214 8.3C19.591 8.6625 19.591 9.25 19.214 9.625Z" fill="#292D32"/>
</svg>
