<svg width="28" height="26" viewBox="0 0 28 26" fill="none" xmlns="http://www.w3.org/2000/svg">
<path d="M20.9804 26H7.01961C3.28964 26 0.918441 23.9805 0.705299 20.6065L0.0125896 10.6298C-0.0939811 9.11814 0.478836 7.66698 1.62447 6.56651C2.75678 5.46605 4.35535 4.83721 6.00719 4.83721C6.43347 4.83721 6.84644 4.60744 7.04626 4.24465L8.00539 2.51535C8.79135 1.10047 10.7629 0 12.4814 0H15.532C17.2504 0 19.2087 1.10047 19.9946 2.50326L20.9537 4.26884C21.1536 4.60744 21.5532 4.83721 21.9928 4.83721C23.6447 4.83721 25.2432 5.46605 26.3755 6.56651C27.5212 7.67907 28.094 9.11814 27.9874 10.6298L27.2947 20.6186C27.0549 24.0409 24.7503 26 20.9804 26ZM12.4814 1.81395C11.4956 1.81395 10.2434 2.51535 9.79045 3.32558L8.83131 5.06698C8.27182 6.04651 7.19279 6.65116 6.00719 6.65116C4.8882 6.65116 3.84912 7.06233 3.0765 7.8C2.31718 8.53767 1.93086 9.50512 2.01079 10.5088L2.7035 20.4977C2.86334 22.9405 4.31538 24.186 7.01961 24.186H20.9804C23.6713 24.186 25.1233 22.9405 25.2965 20.4977L25.9892 10.5088C26.0558 9.50512 25.6828 8.53767 24.9235 7.8C24.1509 7.06233 23.1118 6.65116 21.9928 6.65116C20.8072 6.65116 19.7282 6.04651 19.1687 5.09116L18.1962 3.32558C17.7566 2.52744 16.5044 1.82605 15.5186 1.82605H12.4814V1.81395Z" fill="#292D32"/>
<path d="M15.9986 9.06975H12.0022C11.456 9.06975 11.0031 8.65859 11.0031 8.16278C11.0031 7.66696 11.456 7.2558 12.0022 7.2558H15.9986C16.5448 7.2558 16.9977 7.66696 16.9977 8.16278C16.9977 8.65859 16.5448 9.06975 15.9986 9.06975Z" fill="#292D32"/>
<path d="M14.0004 21.1628C11.0564 21.1628 8.67188 18.9981 8.67188 16.3256C8.67188 13.653 11.0564 11.4884 14.0004 11.4884C16.9444 11.4884 19.3289 13.653 19.3289 16.3256C19.3289 18.9981 16.9444 21.1628 14.0004 21.1628ZM14.0004 13.3023C12.1621 13.3023 10.6701 14.6567 10.6701 16.3256C10.6701 17.9944 12.1621 19.3488 14.0004 19.3488C15.8388 19.3488 17.3307 17.9944 17.3307 16.3256C17.3307 14.6567 15.8388 13.3023 14.0004 13.3023Z" fill="#292D32"/>
</svg>
